<svg width="205" height="206" viewBox="0 0 205 206" fill="none" xmlns="http://www.w3.org/2000/svg">
<path fill-rule="evenodd" clip-rule="evenodd" d="M142.406 78.1253L136.073 81.6805C117.348 92.1927 93.6837 86.4751 81.8235 68.5731L77.4693 62.0009L81.3321 68.8734C91.8538 87.5935 86.1484 111.261 68.2524 123.13L62.2 127.144L68.5329 123.589C87.2584 113.077 110.923 118.794 122.783 136.696L127.137 143.269L123.274 136.396C112.753 117.676 118.458 94.009 136.354 82.1396L142.406 78.1253ZM164.955 63.1732L165.997 64.8786L137.459 83.8063C120.436 95.0967 115.009 117.609 125.018 135.416L142.286 166.14L140.581 167.182L121.116 137.801C109.834 120.772 87.324 115.334 69.512 125.333L39.6512 142.096L38.609 140.391L67.147 121.463C84.1699 110.173 89.5971 87.6603 79.5886 69.8534L62.3204 39.13L64.0258 38.0877L83.4908 67.4685C94.7725 84.4972 117.282 89.9359 135.094 79.9366L164.955 63.1732Z" fill="#F4D566"/>
</svg>
